<svg xmlns="http://www.w3.org/2000/svg" xmlns:xlink="http://www.w3.org/1999/xlink" version="1.1" enable-background="new 0 0 512 512" width="512" height="512" style=""><rect id="backgroundrect" width="100%" height="100%" x="0" y="0" fill="none" stroke="none"/>
  
<g class="currentLayer" style=""><title>Layer 1</title><g id="svg_1" class="selected" fill="#ffffff" fill-opacity="1">
    <g id="svg_2" fill="#ffffff" fill-opacity="1">
      <g id="svg_3" fill="#ffffff" fill-opacity="1">
        <g id="svg_4" fill="#ffffff" fill-opacity="1">
          <polygon points="311.2,365.5 63,365.5 11,126.7 250.7,126.7 250.7,146.5 36.5,146.5 79.9,345.7 296.3,345.7 416.2,11 501,11       501,31.9 431,31.9     " id="svg_5" fill="#ffffff" fill-opacity="1"/>
        </g>
        <g id="svg_6" fill="#ffffff" fill-opacity="1">
          <g id="svg_7" fill="#ffffff" fill-opacity="1">
            <path d="m262.4,501c-29.7,0-54.1-24-54.1-54.2 0-30.2 24.4-54.2 54.1-54.2s54.1,24 54.1,54.2c0,30.2-24.4,54.2-54.1,54.2zm0-87.6c-19.1,0-33.9,15.6-33.9,33.4 0,18.8 14.8,33.4 33.9,33.4s33.9-15.6 33.9-33.4c5.68434e-14-18.8-15.9-33.4-33.9-33.4z" id="svg_8" fill="#ffffff" fill-opacity="1"/>
          </g>
          <g id="svg_9" fill="#ffffff" fill-opacity="1">
            <path d="m108.6,501c-29.7,0-54.1-24-54.1-54.2 0-30.2 24.4-54.2 54.1-54.2s54.1,24 54.1,54.2c0,30.2-24.4,54.2-54.1,54.2zm0-87.6c-19.1,0-33.9,15.6-33.9,33.4 0,18.8 14.8,33.4 33.9,33.4s33.9-15.6 33.9-33.4c-1-18.8-15.9-33.4-33.9-33.4z" id="svg_10" fill="#ffffff" fill-opacity="1"/>
          </g>
        </g>
      </g>
    </g>
  </g></g></svg>