<?xml version="1.0" encoding="utf-8"?>
<!-- Generator: Adobe Illustrator 16.0.0, SVG Export Plug-In . SVG Version: 6.00 Build 0)  -->
<!DOCTYPE svg PUBLIC "-//W3C//DTD SVG 1.1//EN" "http://www.w3.org/Graphics/SVG/1.1/DTD/svg11.dtd">
<svg version="1.1" id="Layer_1" xmlns="http://www.w3.org/2000/svg" xmlns:xlink="http://www.w3.org/1999/xlink" x="0px" y="0px"
	 width="250px" height="100px" viewBox="0 0 250 100" enable-background="new 0 0 250 100" xml:space="preserve">
<g id="Layer_2">
</g>
<g>
	<path fill="#FFFFFF" d="M8.55,9.822c0,1.226-0.064,5.486-0.064,7.745v29.691c0,2.259,0.064,6.519,0.064,7.745H2.289
		c0-1.227,0.064-5.486,0.064-7.745V17.567c0-2.259-0.064-6.519-0.064-7.745H8.55z"/>
	<path fill="#FFFFFF" d="M36.886,17.761c0,4.841-3.873,8.713-8.713,8.713s-8.714-3.873-8.714-8.713s3.873-8.714,8.714-8.714
		S36.886,12.92,36.886,17.761z M23.59,17.761c0,2.582,2.065,4.712,4.583,4.712c2.517,0,4.583-2.13,4.583-4.712
		c0-2.582-2.065-4.712-4.583-4.712C25.655,13.049,23.59,15.179,23.59,17.761z"/>
	<path fill="#FFFFFF" d="M54.509,44.417c1.678,2.905,4.647,5.809,8.843,5.809c4.647,0,7.423-2.775,7.423-6.325
		c0-4.712-3.873-7.552-8.004-10.457c-5.034-3.55-10.521-7.229-10.521-13.812c0-6.132,4.647-10.585,11.489-10.585
		c6.003,0,9.682,3.356,12.199,6.39l-4.712,3.55c-1.614-2.194-3.937-4.518-7.487-4.518c-3.55,0-5.422,2.259-5.422,4.905
		c0,3.938,3.809,6.261,8.068,9.23c5.035,3.485,10.521,7.552,10.521,14.781c0,7.293-5.228,12.393-13.554,12.393
		c-7.165,0-11.747-4.324-14.071-8.52L54.509,44.417z"/>
	<path fill="#FFFFFF" d="M124.092,48.548c-4.583,4.776-11.166,7.746-18.524,7.746c-13.167,0-23.881-10.714-23.881-23.882
		c0-13.167,10.714-23.881,23.881-23.881c7.165,0,13.554,3.163,17.944,8.133l-4.39,4.001c-3.227-3.937-8.132-6.454-13.554-6.454
		c-9.811,0-17.75,8.132-17.75,18.201c0,10.069,7.939,18.201,17.75,18.201c5.745,0,10.908-2.452,14.394-6.26L124.092,48.548z"/>
	<path fill="#FFFFFF" d="M133.068,9.822h14.975c2.26,0,6.52-0.064,7.746-0.064v5.809c-1.227,0-5.486-0.064-7.746-0.064h-8.842
		v11.876h5.68c2.259,0,6.52-0.064,7.745-0.064v5.938c-1.226,0-5.486-0.064-7.745-0.064h-5.68v15.877h10.133
		c2.26,0,6.52-0.064,7.746-0.064v6.067c-1.227,0-5.486-0.064-7.746-0.064h-16.266V9.822z"/>
	<path fill="#FFFFFF" d="M179.415,27.442c-1.872-1.937-3.872-3.938-5.163-5.745l-0.193,0.129c0.129,0.646,0.451,2.323,0.451,4.776
		v20.654c0,2.259,0.064,6.519,0.064,7.745h-6.261c0-1.227,0.064-5.486,0.064-7.745V8.015l29.046,29.368
		c1.871,1.936,3.872,3.937,5.163,5.745l0.193-0.129c-0.129-0.646-0.452-2.324-0.452-4.776V17.567c0-2.259-0.064-6.519-0.064-7.745
		h6.262c0,1.226-0.064,5.486-0.064,7.745v39.244L179.415,27.442z"/>
	<path fill="#FFFFFF" d="M247.257,15.566c-1.226,0-5.485-0.064-7.745-0.064h-2.646v31.756c0,2.259,0.064,6.519,0.064,7.745h-6.26
		c0-1.227,0.064-5.486,0.064-7.745V15.501h-2.646c-2.26,0-6.52,0.064-7.746,0.064V9.757c1.227,0,5.486,0.064,7.746,0.064h11.424
		c2.26,0,6.52-0.064,7.745-0.064V15.566z"/>
</g>
<g>
	<path fill="#FFFFFF" d="M84.164,69.487c6.667,0,12.091,5.424,12.091,12.091c0,6.668-5.424,12.092-12.091,12.092h-5.7V69.487H84.164
		z M80.019,92.149h4.146c5.804,0,10.537-4.733,10.537-10.571s-4.733-10.57-10.537-10.57h-4.146V92.149z"/>
	<path fill="#FFFFFF" d="M103.03,69.487c0,0.656-0.035,2.937-0.035,4.146v12.195c0,1.796,0.38,3.558,1.382,4.663
		c1.175,1.313,3.005,2.073,6.011,2.073c3.489,0,5.39-1.141,6.322-2.177V73.633c0-1.209-0.035-3.489-0.035-4.146h1.624
		c0,0.656-0.034,2.937-0.034,4.146v17.203c-0.968,1.451-3.351,3.248-7.877,3.248c-3.593,0-5.769-0.967-7.22-2.625
		c-1.244-1.417-1.728-3.387-1.728-5.805V73.633c0-1.209-0.034-3.489-0.034-4.146H103.03z"/>
	<path fill="#FFFFFF" d="M128.459,69.487c5.112,0,6.736,2.937,6.736,6.011c0,2.314-1.278,4.664-3.455,5.424v0.139
		c2.314,0.587,4.491,2.971,4.491,5.77c0,4.006-2.245,6.84-6.979,6.84h-5.285c0-0.656,0-2.938,0-24.183H128.459z M125.521,80.404
		h3.109c3.109,0,5.01-2.246,5.01-4.906c0-2.314-1.348-4.49-5.044-4.49h-3.075V80.404z M125.521,92.149h3.628
		c3.731,0,5.527-2.073,5.527-5.183c0-2.693-2.349-5.043-5.458-5.043h-3.697V92.149z"/>
	<path fill="#FFFFFF" d="M158.861,89.835c0.484,1.209,1.59,3.835,1.59,3.835h-1.763c0,0-0.69-1.832-1.278-3.248l-0.414-0.967
		h-13.611l-0.346,0.933c-0.621,1.589-1.243,3.282-1.243,3.282h-1.762c0,0,0.933-2.281,1.554-3.869l8.465-21.627L158.861,89.835z
		 M149.983,72.078c-0.034,0.414-0.242,1.105-0.829,2.592l-4.837,12.436c-0.173,0.449-0.483,0.83-0.587,0.898l0.068,0.139
		c0.07-0.07,0.588-0.207,1.21-0.207h10.329c0.656,0,1.105,0.137,1.209,0.207l0.069-0.139c-0.104-0.068-0.346-0.38-0.553-0.898
		l-5.079-12.436c-0.621-1.486-0.828-2.178-0.863-2.592H149.983z"/>
	<path fill="#FFFFFF" d="M166.88,69.487c0,0.656-0.034,2.937-0.034,4.146v15.891c0,1.209,0.034,3.49,0.034,4.146h-1.624
		c0-0.656,0.035-2.938,0.035-4.146V73.633c0-1.209-0.035-3.489-0.035-4.146H166.88z"/>
</g>
<text transform="matrix(1 0 0 1 535.3086 64.3359)"><tspan x="0" y="0" font-family="'Semplicita-Medium'" font-size="64.5516" letter-spacing="3">I</tspan><tspan x="19.043" y="0" font-family="'Semplicita-Medium'" font-size="64.5516" letter-spacing="9">°</tspan><tspan x="50.672" y="0" font-family="'Semplicita-Medium'" font-size="64.5516">S</tspan><tspan x="81.27" y="0" font-family="'Semplicita-Medium'" font-size="64.5516" letter-spacing="3">C</tspan><tspan x="132.007" y="0" font-family="'Semplicita-Medium'" font-size="64.5516" letter-spacing="5">E</tspan><tspan x="167.316" y="0" font-family="'Semplicita-Medium'" font-size="64.5516" letter-spacing="7">N</tspan><tspan x="221.604" y="0" font-family="'Semplicita-Medium'" font-size="64.5516">T</tspan></text>
<text transform="matrix(1 0 0 1 614.2109 103.0029)" font-family="'Semplicita-Light'" font-size="34.5516" letter-spacing="2">DUBAI</text>
</svg>
