<svg viewBox="3 7.25 35.5 35.5" xmlns="http://www.w3.org/2000/svg">
	<g fill="#002f86">
		<path d="m32.418 10.02c-1.672-1.91-4.699-2.727-8.57-2.727h-11.234c-.793 0-1.465.574-1.59 1.355l-4.68 29.672c-.09.582.363 1.113.953 1.113h6.938l1.742-11.05-.055.348c.125-.781.793-1.355 1.582-1.355h3.297c6.477 0 11.547-2.633 13.03-10.238.043-.227.082-.445.113-.66.441-2.813 0-4.727-1.523-6.457"/>
		<path d="m17.848 16.516c.074-.473.379-.855.785-1.051.184-.09.391-.137.605-.137h8.809c1.043 0 2.02.066 2.902.211.258.039.504.086.742.141.242.055.473.113.699.18.113.035.227.066.336.102.434.148.844.316 1.215.516.441-2.813 0-4.727-1.523-6.457-1.676-1.91-4.699-2.727-8.57-2.727h-11.234c-.793 0-1.465.574-1.59 1.355l-4.676 29.668c-.094.586.359 1.117.949 1.117h6.938l1.742-11.05Z"/>
	</g>
	<path d="m33.941 16.477c-.031.215-.07.434-.113.66-1.48 7.605-6.551 10.238-13.03 10.238h-3.297c-.789 0-1.457.574-1.582 1.355l-1.688 10.703-.477 3.035c-.082.512.313.977.832.977h5.848c.691 0 1.281-.504 1.387-1.188l.059-.297 1.102-6.984.07-.387c.109-.684.695-1.188 1.391-1.188h.875c5.664 0 10.1-2.301 11.395-8.957.539-2.781.262-5.102-1.172-6.734-.434-.492-.973-.902-1.602-1.234" fill="#009cde"/>
	<path d="m32.391 15.859c-.223-.066-.457-.125-.699-.18-.238-.051-.484-.098-.738-.141-.891-.145-1.863-.211-2.906-.211h-8.809c-.219 0-.422.047-.605.137-.41.195-.711.578-.785 1.051l-1.871 11.867-.055.348c.125-.781.793-1.355 1.582-1.355h3.297c6.477 0 11.547-2.633 13.03-10.238.043-.227.082-.445.113-.66-.375-.195-.777-.367-1.215-.512-.109-.039-.223-.074-.336-.105" fill="#012069"/>
</svg>